<svg width="29" height="28" viewBox="0 0 29 28" fill="none" xmlns="http://www.w3.org/2000/svg">
<path d="M28.6793 8.33622C28.5495 8.16156 28.3872 8.02105 28.204 7.92458C28.0208 7.8281 27.821 7.77799 27.6188 7.77778H19.3331V1.55556C19.3331 1.143 19.1877 0.747335 18.9287 0.455612C18.6697 0.163888 18.3185 0 17.9522 0H13.8094C13.257 0 12.7571 0.370222 12.5403 0.942667L8.75653 10.8889H8.28563C8.28563 10.4763 8.14014 10.0807 7.88117 9.78895C7.62219 9.49722 7.27094 9.33333 6.90469 9.33333H1.38094C1.01469 9.33333 0.663444 9.49722 0.404468 9.78895C0.145491 10.0807 0 10.4763 0 10.8889V26.4444C0 26.857 0.145491 27.2527 0.404468 27.5444C0.663444 27.8361 1.01469 28 1.38094 28H6.90469C7.27094 28 7.62219 27.8361 7.88117 27.5444C8.14014 27.2527 8.28563 26.857 8.28563 26.4444V25.6324L13.2957 27.8896C13.46 27.9627 13.634 28 13.8094 28H24.8569C25.5239 28 26.0956 27.4618 26.2157 26.7229L28.9776 9.61178C29.0139 9.38753 29.006 9.15704 28.9545 8.93662C28.9029 8.7162 28.809 8.51123 28.6793 8.33622ZM5.52376 24.8889H2.76188V12.4444H5.52376V24.8889ZM23.7052 24.8889H14.0759L8.28563 22.2802V14H9.66657C10.2189 14 10.7188 13.6298 10.9357 13.0573L14.7194 3.11111H16.5713V9.33333C16.5713 9.74589 16.7168 10.1416 16.9757 10.4333C17.2347 10.725 17.586 10.8889 17.9522 10.8889H25.9644L23.7052 24.8889Z" fill="#33363F"/>
</svg>
